<svg width="125" height="38" viewBox="0 0 125 38" fill="none" xmlns="http://www.w3.org/2000/svg">
<path d="M36.221 4.15849L29.7364 37.6176H22.2328L24.873 23.995H10.1901L7.5499 37.6176H0L6.48458 4.15849H14.0345L11.487 17.3031H26.1699L28.7174 4.15849H36.221Z" fill="#11121D"/>
<path d="M62.1416 22.8478C62.1416 24.0268 62.0026 25.3333 61.7247 26.7673H42.6415C42.8886 30.2725 45.0346 32.0252 49.0798 32.0252C50.3458 32.0252 51.5501 31.818 52.6926 31.4038C53.866 30.9895 54.885 30.4 55.7496 29.6352L58.7603 34.5585C57.3708 35.7057 55.7805 36.566 53.9895 37.1396C52.1986 37.7132 50.3149 38 48.3387 38C45.7757 38 43.5216 37.5379 41.5762 36.6138C39.6617 35.6579 38.1795 34.3036 37.1296 32.5509C36.1106 30.7983 35.6011 28.7748 35.6011 26.4805C35.6011 23.6444 36.2187 21.0952 37.4539 18.8327C38.7199 16.5384 40.4646 14.7539 42.6878 13.4792C44.9111 12.1727 47.4432 11.5195 50.2841 11.5195C52.6926 11.5195 54.777 11.9816 56.537 12.9057C58.328 13.8298 59.7021 15.1522 60.6594 16.873C61.6475 18.5937 62.1416 20.5853 62.1416 22.8478ZM49.9598 17.1119C48.2615 17.1119 46.8256 17.5899 45.6522 18.5459C44.4788 19.47 43.6451 20.7606 43.151 22.4176H55.518C55.518 20.7606 55.0085 19.47 53.9895 18.5459C53.0014 17.5899 51.6582 17.1119 49.9598 17.1119Z" fill="#11121D"/>
<path d="M81.7773 11.5195C84.5564 11.5195 86.7643 12.2843 88.4009 13.8138C90.0374 15.3115 90.8557 17.4625 90.8557 20.2667C90.8557 21.3182 90.7477 22.3539 90.5315 23.3736L87.7524 37.6176H80.5267L83.2132 23.8516C83.3367 23.3099 83.3985 22.7203 83.3985 22.083C83.3985 20.7447 83.0434 19.7249 82.3332 19.0239C81.6229 18.3229 80.5576 17.9723 79.1372 17.9723C77.2844 17.9723 75.7405 18.53 74.5053 19.6453C73.3011 20.7287 72.4828 22.3698 72.0505 24.5686L69.5493 37.6176H62.3236L67.2797 11.9019H74.1348L73.579 14.6742C75.8023 12.5711 78.535 11.5195 81.7773 11.5195Z" fill="#11121D"/>
<path d="M103.705 14.961C104.786 13.7501 106.082 12.8738 107.595 12.3321C109.139 11.7904 110.946 11.5195 113.015 11.5195L111.718 18.4025C110.853 18.3388 110.297 18.3069 110.05 18.3069C107.858 18.3069 106.098 18.8646 104.77 19.9799C103.473 21.0952 102.593 22.8319 102.13 25.1899L99.7214 37.6176H92.4957L97.4518 11.9019H104.307L103.705 14.961Z" fill="#11121D"/>
<path d="M115.366 11.9019H122.545L117.589 37.6176H110.41L115.366 11.9019ZM120.183 8.31698C118.948 8.31698 117.929 7.95052 117.126 7.21761C116.354 6.45283 115.968 5.52872 115.968 4.44529C115.968 3.17065 116.4 2.11908 117.265 1.29057C118.16 0.430189 119.318 0 120.739 0C122.005 0 123.024 0.366457 123.796 1.09937C124.599 1.80042 125 2.67673 125 3.7283C125 5.09853 124.552 6.21384 123.657 7.07421C122.761 7.90273 121.603 8.31698 120.183 8.31698Z" fill="#11121D"/>
</svg>
