<svg width="82" height="25" viewBox="0 0 82 25" fill="none" xmlns="http://www.w3.org/2000/svg">
<path d="M23.761 2.73585L19.5071 24.7484H14.5847L16.3167 15.7862H6.68467L4.95273 24.7484H0L4.25388 2.73585H9.20662L7.53545 11.3836H17.1675L18.8386 2.73585H23.761Z" fill="#FAFAFA"/>
<path d="M40.7649 15.0314C40.7649 15.8071 40.6737 16.6667 40.4914 17.6101H27.9728C28.1349 19.9161 29.5427 21.0692 32.1963 21.0692C33.0269 21.0692 33.8169 20.9329 34.5664 20.6604C35.3361 20.3878 36.0046 20 36.5718 19.4969L38.5468 22.7358C37.6352 23.4906 36.592 24.0566 35.4171 24.434C34.2423 24.8113 33.0066 25 31.7102 25C30.0289 25 28.5502 24.696 27.274 24.0881C26.0181 23.4591 25.0458 22.5681 24.357 21.4151C23.6886 20.2621 23.3543 18.9308 23.3543 17.4214C23.3543 15.5556 23.7595 13.8784 24.5697 12.3899C25.4003 10.8805 26.5448 9.7065 28.0032 8.86793C29.4617 8.00839 31.1227 7.57862 32.9863 7.57862C34.5664 7.57862 35.9337 7.8826 37.0883 8.49057C38.2632 9.09853 39.1646 9.96855 39.7926 11.1006C40.4408 12.2327 40.7649 13.543 40.7649 15.0314ZM32.7737 11.2579C31.6595 11.2579 30.7176 11.5723 29.9479 12.2013C29.1781 12.8092 28.6312 13.6583 28.3071 14.7484H36.4198C36.4198 13.6583 36.0856 12.8092 35.4171 12.2013C34.7689 11.5723 33.8878 11.2579 32.7737 11.2579Z" fill="#FAFAFA"/>
<path d="M53.6459 7.57862C55.469 7.57862 56.9174 8.08176 57.991 9.08805C59.0646 10.0734 59.6014 11.4885 59.6014 13.3333C59.6014 14.0252 59.5305 14.7065 59.3887 15.3774L57.5656 24.7484H52.8255L54.5879 15.6918C54.6689 15.3354 54.7094 14.9476 54.7094 14.5283C54.7094 13.6478 54.4764 12.9769 54.0105 12.5157C53.5446 12.0545 52.8458 11.8239 51.914 11.8239C50.6986 11.8239 49.6858 12.1908 48.8755 12.9245C48.0855 13.6373 47.5487 14.717 47.2651 16.1635L45.6243 24.7484H40.8843L44.1355 7.83019H48.6324L48.2678 9.65409C49.7263 8.27044 51.519 7.57862 53.6459 7.57862Z" fill="#FAFAFA"/>
<path d="M68.0303 9.84277C68.7393 9.04612 69.5901 8.4696 70.5826 8.11321C71.5955 7.75681 72.7805 7.57862 74.1377 7.57862L73.2869 12.1069C72.7197 12.065 72.3551 12.044 72.193 12.044C70.7548 12.044 69.6002 12.4109 68.7292 13.1447C67.8784 13.8784 67.3011 15.021 66.9972 16.5723L65.4172 24.7484H60.6772L63.9284 7.83019H68.4253L68.0303 9.84277Z" fill="#FAFAFA"/>
<path d="M75.6799 7.83019H80.3896L77.1384 24.7484H72.4288L75.6799 7.83019ZM78.84 5.4717C78.0297 5.4717 77.3612 5.23061 76.8346 4.74843C76.3282 4.24528 76.0749 3.63732 76.0749 2.92453C76.0749 2.08596 76.3585 1.39413 76.9257 0.849057C77.5132 0.283019 78.2728 0 79.2046 0C80.0351 0 80.7036 0.24109 81.21 0.72327C81.7367 1.18449 82 1.76101 82 2.45283C82 3.3543 81.7063 4.08805 81.1188 4.65409C80.5314 5.19916 79.7718 5.4717 78.84 5.4717Z" fill="#FAFAFA"/>
</svg>
