<svg width="14" height="10" viewBox="0 0 14 10" fill="none" xmlns="http://www.w3.org/2000/svg">
<path d="M3.53711 3.36328C4.0332 2.80859 4.60547 2.53516 5.25391 2.54297C5.88281 2.55859 6.34375 2.78516 6.63672 3.22266C6.93359 3.65625 7.04492 4.25 6.9707 5.00391L6.30273 9H4.65039L5.32422 4.98633C5.34375 4.83398 5.34766 4.69336 5.33594 4.56445C5.29688 4.14258 5.05078 3.92578 4.59766 3.91406C4.15234 3.89844 3.76172 4.08984 3.42578 4.48828L2.62891 9H0.976562L2.53516 0H4.19336L3.53711 3.36328ZM11.2656 7.21289C11.3281 6.90039 11.1113 6.67383 10.6152 6.5332L10.082 6.39844C8.82031 6.05078 8.20703 5.4375 8.24219 4.55859C8.26172 3.96094 8.52539 3.47461 9.0332 3.09961C9.54492 2.7207 10.1602 2.53516 10.8789 2.54297C11.5938 2.55078 12.1719 2.74023 12.6133 3.11133C13.0547 3.48242 13.2793 3.97656 13.2871 4.59375L11.6465 4.58789C11.6543 4.04492 11.3848 3.76953 10.8379 3.76172C10.5801 3.76172 10.3555 3.82617 10.1641 3.95508C9.97656 4.08398 9.86133 4.25781 9.81836 4.47656C9.75977 4.78906 9.99609 5.00977 10.5273 5.13867L10.7617 5.19141C11.3008 5.32031 11.7129 5.46875 11.998 5.63672C12.2832 5.80078 12.502 6.00586 12.6543 6.25195C12.8105 6.49805 12.8828 6.79297 12.8711 7.13672C12.8594 7.53906 12.7285 7.89062 12.4785 8.19141C12.2324 8.49219 11.8926 8.72461 11.459 8.88867C11.0293 9.05273 10.5762 9.12891 10.0996 9.11719C9.39648 9.10938 8.81055 8.9082 8.3418 8.51367C7.87305 8.11523 7.63477 7.60156 7.62695 6.97266L9.18555 6.98438C9.20117 7.58984 9.52539 7.89648 10.1582 7.9043C10.4629 7.9043 10.7129 7.8418 10.9082 7.7168C11.1074 7.5918 11.2266 7.42383 11.2656 7.21289Z" fill="#FAFAFA"/>
</svg>
