<svg width="134" height="40" viewBox="0 0 134 40" fill="none" xmlns="http://www.w3.org/2000/svg">
<rect width="134" height="40" rx="14" fill="#F72585"/>
<path d="M48.8003 26.1988C51.0214 26.1988 52.1928 24.9669 52.1928 23.4386C52.1928 21.8168 50.9454 21.2398 49.8196 20.8031C48.922 20.46 48.131 20.2261 48.131 19.5867C48.131 19.0877 48.4961 18.7446 49.2719 18.7446C49.8957 18.7446 50.489 19.0409 51.0975 19.4932L52.1015 18.1053C51.4017 17.5594 50.4433 17.0292 49.2111 17.0292C47.2638 17.0292 46.0316 18.1364 46.0316 19.6959C46.0316 21.1618 47.2334 21.8324 48.3135 22.2534C49.2111 22.6121 50.0934 22.9084 50.0934 23.5633C50.0934 24.1092 49.7131 24.4834 48.8612 24.4834C48.0701 24.4834 47.3399 24.1403 46.5793 23.5322L45.56 24.9669C46.4119 25.6842 47.6594 26.1988 48.8003 26.1988Z" fill="#FAFAFA"/>
<path d="M55.3132 25.9805H57.869L58.7361 22.1754C58.9187 21.3645 59.0404 20.5536 59.2077 19.6335H59.2838C59.4511 20.5536 59.5881 21.3489 59.7706 22.1754L60.6682 25.9805H63.3L65.3994 17.2476H63.3304L62.4024 21.5517C62.2503 22.4094 62.1286 23.2359 61.9765 24.1092H61.9004C61.7179 23.2359 61.5657 22.4094 61.368 21.5517L60.3031 17.2476H58.3254L57.2909 21.5517C57.0779 22.3938 56.9258 23.2359 56.7585 24.1092H56.6976C56.5455 23.2359 56.439 22.4094 56.2717 21.5517L55.3437 17.2476H53.1074L55.3132 25.9805Z" fill="#FAFAFA"/>
<path d="M67.0314 25.9805H69.2677V17.2476H67.0314V25.9805ZM68.1572 15.8441C68.9178 15.8441 69.4503 15.345 69.4503 14.5809C69.4503 13.8324 68.9178 13.3333 68.1572 13.3333C67.3813 13.3333 66.8489 13.8324 66.8489 14.5809C66.8489 15.345 67.3813 15.8441 68.1572 15.8441Z" fill="#FAFAFA"/>
<path d="M71.6518 29.3333H73.888V26.6823L73.812 25.2476C74.4661 25.8557 75.1811 26.1988 75.9266 26.1988C77.7978 26.1988 79.5472 24.4678 79.5472 21.4737C79.5472 18.7914 78.2998 17.0292 76.2004 17.0292C75.2876 17.0292 74.4053 17.5283 73.6903 18.152H73.6446L73.4773 17.2476H71.6518V29.3333ZM75.4245 24.3119C74.9682 24.3119 74.4205 24.1403 73.888 23.6569V19.8207C74.4661 19.2125 74.9834 18.9162 75.5615 18.9162C76.7329 18.9162 77.2501 19.8363 77.2501 21.5049C77.2501 23.4074 76.459 24.3119 75.4245 24.3119Z" fill="#FAFAFA"/>
<path d="M85.154 26.1988C86.2037 26.1988 87.2838 25.8246 88.1205 25.232L87.3599 23.8285C86.7514 24.2183 86.1429 24.4366 85.4431 24.4366C84.1804 24.4366 83.2676 23.6881 83.0851 22.2534H88.3335C88.3944 22.0507 88.44 21.6296 88.44 21.193C88.44 18.7914 87.223 17.0292 84.8802 17.0292C82.8569 17.0292 80.9096 18.7914 80.9096 21.614C80.9096 24.499 82.7656 26.1988 85.154 26.1988ZM83.0546 20.7251C83.222 19.462 84.0131 18.807 84.9106 18.807C86.0059 18.807 86.5232 19.5555 86.5232 20.7251H83.0546Z" fill="#FAFAFA"/>
</svg>
